C:\GBW_MyPrograms\KinderuniversiteitApp\Resultaten\Ellis\SpongeBob_v2.mot
version=1
nRows=6
nColumns=31
inDegrees=yes
endheader
                time	         pelvis_tilt	           pelvis_tx	           pelvis_ty	       hip_flexion_r	        knee_angle_r	       ankle_angle_r	       hip_flexion_l	        knee_angle_l	       ankle_angle_l	    lumbar_extension	          arm_flex_r	          arm_flex_l	hamstrings_r/activation	bifemsh_r/activation	glut_max_r/activation	iliopsoas_r/activation	rect_fem_r/activation	  vasti_r/activation	gastroc_r/activation	 soleus_r/activation	tib_ant_r/activation	hamstrings_l/activation	bifemsh_l/activation	glut_max_l/activation	iliopsoas_l/activation	rect_fem_l/activation	  vasti_l/activation	gastroc_l/activation	 soleus_l/activation	tib_ant_l/activation	
          0.00000000	         -6.19077935	          0.00000000	          0.90264907	        -26.43185710	         -8.41247523	        -43.48707181	         43.54225429	        -19.48484846	        -16.45346258	          2.28681797	        -31.52441861	        -31.52274608	          0.08547757	          0.49760293	          0.23051991	          0.75920929	          0.99282480	          0.83879758	          0.75008868	          0.81294058	          0.26094524	          0.83055737	          0.10951135	          0.76459419	          0.13900871	          0.61162853	          0.93734896	          0.08709304	          0.56225812	          0.77775201	
          0.01676124	         -6.54951023	          0.02932966	          0.90554222	        -25.99934766	         -8.06972693	        -47.53610919	         45.19946241	        -24.91635413	        -14.55262190	          3.21165202	        -30.87367069	        -30.87026382	          0.06696111	          0.51904608	          0.18065427	          0.88596981	          0.98313482	          0.65652089	          0.66574923	          0.66903874	          0.47425610	          0.91964203	          0.08562879	          0.88880857	          0.10866807	          0.81623982	          0.97040521	          0.06813271	          0.46037184	          0.60812314	
          0.03352248	         -6.71728005	          0.05599581	          0.91023471	        -25.15237241	         -8.82658686	        -47.48293996	         45.71917202	        -28.42604311	        -12.90931822	          3.70609900	        -29.35377479	        -29.34918677	          0.08061637	          0.40657172	          0.17897576	          0.82178713	          0.98957829	          0.83645180	          0.68602091	          0.71188972	          0.37140052	          0.96180582	          0.06697525	          0.94747004	          0.08495461	          0.89204695	          0.98601542	          0.05335892	          0.35995828	          0.47618808	
          0.05028372	         -6.66343531	          0.08049875	          0.91652682	        -24.43966443	         -9.08991922	        -48.30728159	         45.18832840	        -30.38154652	        -11.22330645	          3.79097638	        -27.07179236	        -27.06739214	          0.06341411	          0.31875263	          0.14071001	          0.91557230	          0.99387881	          0.91663316	          0.60252926	          0.56823913	          0.34549038	          0.90318891	          0.05244130	          0.97516769	          0.06642690	          0.94839497	          0.99338560	          0.05027182	          0.28141777	          0.75140945	
          0.06704496	         -6.61858560	          0.10315178	          0.92373495	        -23.72381010	         -8.66956403	        -50.99050219	         44.08711765	        -31.22517174	         -9.36515019	          3.77586841	        -24.17722194	        -24.17346643	          0.05152877	          0.25000934	          0.11068540	          0.95984231	          0.99531005	          0.94844463	          0.57893396	          0.44870789	          0.48858255	          0.93238986	          0.05027510	          0.98824247	          0.05196781	          0.97491374	          0.99686322	          0.05031618	          0.22001122	          0.88207166	
          0.08380620	         -6.66559483	          0.12417270	          0.93137431	        -22.73382301	         -8.53430196	        -52.87870843	         42.65758727	        -31.20975562	         -7.47199846	          3.77989239	        -20.77669008	        -20.77304312	          0.05116227	          0.19608210	          0.08732905	          0.98068818	          0.99583219	          0.78149306	          0.57121393	          0.35213515	          0.52331793	          0.82989748	          0.05038507	          0.99440879	          0.05014706	          0.98734378	          0.99850027	          0.05028797	          0.17200608	          0.94392533	
